<svg id="Layer_1" data-name="Layer 1" xmlns="http://www.w3.org/2000/svg" viewBox="0 0 110 110"><defs><style>.cls-1{fill:#7abe70;}</style></defs><path class="cls-1" d="M55,0a55,55,0,1,0,55,55A55,55,0,0,0,55,0ZM49.88,94.74h0a.37.37,0,0,1-.18.21s0,0,0,.08a5,5,0,0,1-.24,1.16l-.18.24a.32.32,0,0,1-.19.19.28.28,0,0,0-.13.29.64.64,0,0,1-.32.54c-.1,0-.11.09-.11.18a.37.37,0,0,1-.31.35c-.51.42-1,.88-1.54,1.25a9,9,0,0,1-2,.86c-.43.11-.87,0-1.29.08l0,0h0c-.28-.1-.61.11-.85-.17-1.67-.19-2.56-1.4-3.44-2.63a1.59,1.59,0,0,1-.13-.22.89.89,0,0,0-.2-.4,4.12,4.12,0,0,1-.43-1.17.72.72,0,0,1,0-.52c0-.4-.26-.79-.09-1.2.1-.26,0-.54.09-.79l.11-.41a2.39,2.39,0,0,1,.2-.43l.12-.3c.09-.2.13-.43.2-.64A3.16,3.16,0,0,1,39.75,90,8.3,8.3,0,0,1,42,88.33c.2-.1.43,0,.63-.09s.51,0,.72-.2A.81.81,0,0,1,44.2,88c.11.17.25.13.4.09s.38,0,.55.08l0,0h0c.18.1.41,0,.58.11a13.79,13.79,0,0,1,1.57.82A3,3,0,0,1,49,90.66c.17.14.37.27.38.53l.05.09c.09.19.29.29.4.47s-.16.29,0,.43a1.57,1.57,0,0,0,0,.86h0c.27.15,0,.37.08.54h0A1.4,1.4,0,0,1,49.88,94.74Zm34,1.85a2.44,2.44,0,0,1-2.6,1.26c-2,.23-4.07.35-6.11.47-.86,0-1.72.23-2.59.2a.92.92,0,0,1-.66-.24,3.7,3.7,0,0,1-1.08-3.84,7.57,7.57,0,0,0,.4-2.5,7.38,7.38,0,0,0-.34-1.63c-.3-1-.4-1.93-.65-2.89-.06-.24-.26-.4-.27-.65s0-.43-.11-.61a14,14,0,0,1-.42-1.9,5.34,5.34,0,0,0-.2-.88c-.07-.37-.15-.74-.22-1.11-.13-.18,0-.41-.11-.59s0-.39-.1-.56,0-.56-.11-.82c-.07,0,0-.1,0-.16s0-.34.1-.49A9.6,9.6,0,0,1,69.61,77c.09-.33.26-.65.35-1s-.31-.6-.52-.87a1.65,1.65,0,0,0-.32-.26,1.92,1.92,0,0,1-.29-.28c-.54-.57-1.33-.84-1.77-1.52a.38.38,0,0,0-.63-.09,4.56,4.56,0,0,0-.65.59.46.46,0,0,1-.77,0c-.75-.75-1.69-1.26-2.44-2s-1.51-1.33-2.28-2c-1-.85-2-1.74-3-2.62-.13-.09-.18-.25-.31-.33a2.21,2.21,0,0,1-.93-.69.62.62,0,0,0-.92-.12C54.06,66.67,53,67.47,52,68.3c-.7.59-1.44,1.12-2.17,1.68,0,.2-.17.26-.32.34a1,1,0,0,0-.62.5c-.06.21-.24.28-.42.34L46.82,72.5c-.14.18-.38,0-.53.12H46a2,2,0,0,0-.91,0,3.51,3.51,0,0,0-1.22.86,2.39,2.39,0,0,1-.43.2,5,5,0,0,0-1.75.88c-1.33,1-2.7,1.81-4.09,2.65-.24.14-.54.16-.75.35a2.48,2.48,0,0,1-1.05,0,3,3,0,0,1-1.72-1c-.42-.39-.91-.69-1.34-1.09-.9-.83-1.87-1.59-2.71-2.5a17.12,17.12,0,0,0-2-1.51,4.09,4.09,0,0,0-1.77-.93,1.81,1.81,0,0,0-.9.09c-.46.12-.91.33-1.37.46-.26.07-.53.12-.7-.22a1.11,1.11,0,0,0-.53-.47c-.15-.13-.35,0-.5-.11s-.56.08-.8-.11a3.46,3.46,0,0,0-1.2,0c-.16,0-.28.07-.41.13-.36.08-.73,0-1.09.07a.88.88,0,0,1-.91-.3.67.67,0,0,1,0-.52,2,2,0,0,1,.42-.77,6,6,0,0,0,.39-.49A27.15,27.15,0,0,1,21,66c0-.14.2-.11.28-.2a4.87,4.87,0,0,1,2-1.18,1.39,1.39,0,0,0,.95-.85c.16-.48.69-.54,1.06-.79a3.3,3.3,0,0,1,1.22-.63,1.35,1.35,0,0,1,1.48.56,1.35,1.35,0,0,0,.26.32A1.63,1.63,0,0,1,28.9,65c-.06.17.09.38-.09.53-.23.36,0,.75-.08,1.14-.06.17-.2.43,0,.65a.8.8,0,0,0,.57,0H30c.39-.13.79,0,1.18-.09h.57c.17.12.39,0,.54.13L34,68c.21.06.35.26.57.3.67.2,1.12.77,1.73,1.07.25.12.42.19.37-.16-.07-.52.3-.81.53-1.17.39-.61.95-1.12.86-1.94,0-.17.18-.24.28-.35.73-.79,1.48-1.57,2.21-2.36h0l.53-.52h0a2,2,0,0,0,.63-.71.45.45,0,0,1,.2-.36c.14-.44.56-.72.72-1.16a5.53,5.53,0,0,1,.42-.93l.21-.41a1.48,1.48,0,0,1,.31-.53c.26-.66.68-1.24,1-1.87.07-.13.19-.25.17-.42a4.43,4.43,0,0,1,.85-1.37,5.28,5.28,0,0,0,.9-1.47c.11-.26,0-.63.4-.76.21-.08.29-.28.4-.46.36-.46.49-1.07.89-1.51l.44-.8c0-.1,0-.22.06-.3a.61.61,0,0,0-.1-1,.35.35,0,0,1-.09-.47,5.4,5.4,0,0,1,.53-1l.21-.76c.16-.87.4-1.73.57-2.6a16.39,16.39,0,0,0,.44-3.63c0-.11,0-.24-.06-.35-.18.06-.27.27-.47.3s-.25.16-.27.33c-.16.53-.69.74-1,1.18-.12.18-.44.1-.57-.06-.42-.53-.76-.29-1.11.06a.25.25,0,0,1-.09,0c-.18,0-.2.17-.3.26s-.13.32-.33.37a1.53,1.53,0,0,0-.62.54,1.64,1.64,0,0,1-.75,1.06,1.24,1.24,0,0,0-.41.5,4.86,4.86,0,0,1-2.08,2.22l-.11.1a1,1,0,0,1-.63.63l-.42.4a2.27,2.27,0,0,1-.22.32c-.08.23.09.38.16.57a.75.75,0,0,1,.07.12c.15.22,0,.42-.06.62s-.08.24-.25.2l-.42.09c-.23.17-.38.06-.51-.13s-.29,0-.35-.18a1.55,1.55,0,0,0-.8,0c-.62,0-1-.36-1.15-1.08l0,0,0,0c-.21-.2-.21-.49-.31-.73a.41.41,0,0,1,0-.16c.07-.15,0-.33.09-.47.25-.75,1-1,1.49-1.48.32-.26.92-.4.71-1a.51.51,0,0,1,0-.42V44c.09-.13.07-.34.26-.41l1.41-1a.36.36,0,0,1,.2-.2A7,7,0,0,0,43.27,40c0-.6.53-1,.68-1.56,0-.2.11-.25.24-.32a.94.94,0,0,1,.27-.51,1.4,1.4,0,0,1,.47-.86l0,0v0a2.07,2.07,0,0,1,.53-1.09c.15-.11.08-.32.19-.44s.09-.53.32-.71a1.3,1.3,0,0,0,.32-.6c0-.19,0-.41.21-.55l.09-.14c.12-.19.13-.44.31-.6.14-.35.28-.71.43-1.07a3.06,3.06,0,0,1,.33-.71l.08-.12c.09-.12.1-.28.21-.4l.42-.76a1.9,1.9,0,0,1,1.07-1.28c.79-.39,1.57-.81,2.33-1.26a1.37,1.37,0,0,1,.38-.15c.12-.2.36-.13.53-.21l.51-.32c.11-.16.28-.17.45-.2a.05.05,0,0,0,.08,0c.14-.06.22-.22.37-.27a1.12,1.12,0,0,0,.79-1.08h0c.1-.17,0-.37.08-.53l.12-.3c.22-.54.71-.58,1.18-.63a.54.54,0,0,0,.39-.12c.1-.34.52-.45.55-.86a2.45,2.45,0,0,0-.13-1.11c-.09-.28-.15-.56-.57-.48-.17,0-.16-.22-.29-.28s-.15-.36-.17-.56v0l0,0a1.89,1.89,0,0,1-.11-1.67l.15-.4c0-.08.09-.09.14-.13l.24-.22a.68.68,0,0,0,0-.54l0,0,0,0a1.89,1.89,0,0,1-.22-1.4c.07-.37-.18-.82.22-1.12l.12-.26c.06-.3.08-.61.38-.79a3.07,3.07,0,0,1,1.28-1.39,2.06,2.06,0,0,1,1.68-.7h.31A4.64,4.64,0,0,1,62,10.64h.17a.69.69,0,0,1,.62-.22,1.84,1.84,0,0,0,.84-.32c0-.08.1-.16.21-.09l0,0h0a.41.41,0,0,1,0,.5c-.06,0-.08.06,0,.11s.1.07.21.06a2.46,2.46,0,0,0,1.11-.57c.12-.2.23-.4.5-.19,0,.07,0,.15.08.19s.14.19.14.31,0,.1,0,.14-.23.25.07.27c.13-.08.24-.2.41-.17l.18,0c.24.1.18.3.16.49s-.17.42,0,.65.28.15.35.3a.09.09,0,0,1,0,.12l-.09.74c.1.49-.22.94-.17,1.42a2.57,2.57,0,0,1-.05.78v.1c.2.25.07.49,0,.73a.06.06,0,0,0,0,.09c-.12.19.07.37,0,.55a.43.43,0,0,1-.14.3c-.1.2,0,.44-.09.64-.08.45-.39.87-.19,1.36.09.22-.08.42-.11.63.17.29.07.49-.22.62l-.22.29c-.11.29-.38.4-.61.55l0,.31v.07a1.41,1.41,0,0,1,0,.54c0,.13,0,.28,0,.41a6.77,6.77,0,0,0-.34,1.08c-.11.37.23.46.4.65a.25.25,0,0,1,.19.07.72.72,0,0,0,1,.24c.36-.12.54-.45.84-.63.09-.13.12-.3.32-.3a2.82,2.82,0,0,0,.64-.65.59.59,0,0,1,.41-.31c.15,0,.15-.21.23-.31a1.39,1.39,0,0,1,.82-.64,1,1,0,0,0,.41-.41c.13-.2.18-.48.52-.43.16,0,.23-.18.33-.29s.3-.29.52-.34.48-.31.53-.62.25-.37.4-.53a.18.18,0,0,0,0-.09.81.81,0,0,1,.09-.68c.16-.13.1-.33.18-.49a.18.18,0,0,0,0-.21c-.16-.13-.21-.34-.35-.48a.69.69,0,0,1-.18-.6c.12-.19,0-.38,0-.56a2.49,2.49,0,0,1,.42-1.32c.19-.15.36-.35.56-.5l.55-.61a.46.46,0,0,1,.39-.42c.3-.29.4-.78.9-.89l.35-.05a.26.26,0,0,1,.2.1c.16.19.13.44.21.65s0,.21,0,.32a4.85,4.85,0,0,0,.06,1.14,2.7,2.7,0,0,0,.12,1,1.7,1.7,0,0,1,0,1.46c-.11,0-.08.13-.07.22a.36.36,0,0,1,0,.42,10.63,10.63,0,0,0-1.24,2.21c0,.12-.08.29,0,.34.62.4.09.74-.05,1.07a14.43,14.43,0,0,0-.82,1.36A3.13,3.13,0,0,1,73,23.38a21.18,21.18,0,0,1-1.52,2c-.63.86-1.39,1.61-2,2.5-.47.72-1,1.38-1.54,2.05a4.25,4.25,0,0,0-.78,2.7,13.44,13.44,0,0,0,.07,2.19,12.63,12.63,0,0,1,.06,3c-.08,1.08,0,2.18,0,3.27a.32.32,0,0,1-.1.28,23.38,23.38,0,0,1-.15,3.45.51.51,0,0,1-.16.42,19.38,19.38,0,0,1-.27,3.14.45.45,0,0,1-.14.33c-.12.23,0,.5-.11.73a2.76,2.76,0,0,1-.19,1.06l0,.31a3,3,0,0,1,0,1.24c-.12.81-.22,1.63-.32,2.44a4,4,0,0,0,.39,2.08c.08.2.26.38.12.62h0a.83.83,0,0,0,.1,1,2.28,2.28,0,0,1,.43,1c.16.23.23.52.47.7a1.25,1.25,0,0,1,.59.74l.19.32a14,14,0,0,1,1.39,1.67c.58.64,1.13,1.31,1.74,1.93a.74.74,0,0,1,.23.39.09.09,0,0,0,.1.09,2.59,2.59,0,0,1,1.28,1.46l.2.31a.13.13,0,0,1,0,.12.7.7,0,0,0,.12.58c.08.24.31.41.31.68s0,.43.25.52a2.6,2.6,0,0,1,.94,1.18.79.79,0,0,0,.31.52c.11.06.18.14.12.28v.1a3,3,0,0,1,1.13,3.15l0,0,0,0c0,.24.09.48,0,.73a1.93,1.93,0,0,1,0,.24,2.37,2.37,0,0,0,0,.84.83.83,0,0,1,0,.15s0,0,0,.07a.32.32,0,0,1,0,.42c-.23.29.08.57,0,.86a5.76,5.76,0,0,1,0,1.1,6.07,6.07,0,0,0-.08,1.41c0,.38,0,.77,0,1.15a1,1,0,0,1,0,.17,4.51,4.51,0,0,0,0,1,2.93,2.93,0,0,1,0,.66c0,.17-.07.36-.13.53s0,.21,0,.31,0,.42,0,.64a1.11,1.11,0,0,1,0,.17,7.51,7.51,0,0,0-.06,1.5,1.53,1.53,0,0,1-.06.56.23.23,0,0,1-.14.11.18.18,0,0,0,0,.29c-.11.32,0,.67-.08,1a.08.08,0,0,0,0,.09,17.21,17.21,0,0,0,0,2.78.94.94,0,0,1,0,.16,4.21,4.21,0,0,0,.09.62,1.7,1.7,0,0,1,0,.22,1.36,1.36,0,0,0,.06.57,2.34,2.34,0,0,1,.12.41c0,.26.27.35.42.51a5.56,5.56,0,0,1,2,1.22c.13.1.22.26.41.27s.46.18.68.3a.94.94,0,0,0,.45.16,2.16,2.16,0,0,1,.61.24,2.44,2.44,0,0,0,1,0,.19.19,0,0,1,.13.07l.31,0a2,2,0,0,1,1.75.57h0C83.91,96.09,83.89,96.34,83.89,96.59Z"/></svg>