<svg width="24" height="24" viewBox="0 0 24 24" fill="none" xmlns="http://www.w3.org/2000/svg">
<path d="M12 8C12.2336 7.99954 12.4601 8.08092 12.64 8.23L18.64 13.23C18.8442 13.3997 18.9726 13.6436 18.997 13.9081C19.0214 14.1725 18.9397 14.4358 18.77 14.64C18.6002 14.8442 18.3563 14.9726 18.0919 14.997C17.8275 15.0214 17.5642 14.9397 17.36 14.77L12 10.29L6.63997 14.61C6.53768 14.6931 6.41998 14.7551 6.29364 14.7925C6.16731 14.83 6.03481 14.8421 5.90379 14.8281C5.77276 14.8142 5.64578 14.7745 5.53014 14.7113C5.4145 14.6481 5.31249 14.5627 5.22997 14.46C5.13839 14.3572 5.06903 14.2366 5.02624 14.1057C4.98344 13.9748 4.96814 13.8365 4.98128 13.6994C4.99443 13.5624 5.03573 13.4295 5.10262 13.3091C5.1695 13.1888 5.26052 13.0835 5.36997 13L11.37 8.17C11.5551 8.04448 11.7769 7.98463 12 8Z" fill="#1C1C1C"/>
</svg>
