<svg width="24" height="24" viewBox="0 0 24 24" fill="none" xmlns="http://www.w3.org/2000/svg">
<path d="M14.745 2.23206C14.745 2.23206 13.6772 2.60406 12 2.60406C10.3228 2.60406 9.255 2.23206 9.255 2.23206C9.08627 2.23206 8.91875 2.26036 8.75953 2.31576L1.5 4.83609L2.27953 8.92815L4.57078 9.18484C4.85137 9.21634 5.10976 9.35137 5.29464 9.56311C5.47952 9.77485 5.57737 10.0478 5.56875 10.3278L5.25 21.5763H18.75L18.4313 10.3278C18.4226 10.0478 18.5205 9.77485 18.7054 9.56311C18.8902 9.35137 19.1486 9.21634 19.4292 9.18484L21.7205 8.92815L22.5 4.83609L15.2405 2.31576C15.0812 2.26036 14.9137 2.23206 14.745 2.23206V2.23206Z" stroke="black" stroke-linecap="round" stroke-linejoin="round"/>
<path d="M15.6239 2.44873C15.4114 3.24167 14.9408 3.94268 14.2854 4.44276C13.6301 4.94283 12.8266 5.21395 12 5.21395C11.1734 5.21395 10.3699 4.94283 9.71456 4.44276C9.0592 3.94268 8.58865 3.24167 8.3761 2.44873" stroke="black" stroke-linecap="round" stroke-linejoin="round"/>
</svg>
