<svg width="18" height="18" viewBox="0 0 18 18" fill="none" xmlns="http://www.w3.org/2000/svg">
<path d="M9 10.5C10.6545 10.5 12 9.1545 12 7.5C12 5.8455 10.6545 4.5 9 4.5C7.3455 4.5 6 5.8455 6 7.5C6 9.1545 7.3455 10.5 9 10.5ZM9 6C9.82725 6 10.5 6.67275 10.5 7.5C10.5 8.32725 9.82725 9 9 9C8.17275 9 7.5 8.32725 7.5 7.5C7.5 6.67275 8.17275 6 9 6Z" fill="white"/>
<path d="M8.56507 16.3605C8.692 16.4511 8.84409 16.4999 9.00007 16.4999C9.15605 16.4999 9.30813 16.4511 9.43507 16.3605C9.66307 16.1992 15.0218 12.33 15.0001 7.5C15.0001 4.19175 12.3083 1.5 9.00007 1.5C5.69182 1.5 3.00007 4.19175 3.00007 7.49625C2.97832 12.33 8.33707 16.1992 8.56507 16.3605ZM9.00007 3C11.4818 3 13.5001 5.01825 13.5001 7.50375C13.5158 10.8323 10.2091 13.821 9.00007 14.8013C7.79182 13.8203 4.48432 10.8307 4.50007 7.5C4.50007 5.01825 6.51832 3 9.00007 3Z" fill="white"/>
</svg>
