<svg width="16" height="16" viewBox="0 0 16 16" fill="none" xmlns="http://www.w3.org/2000/svg">
<path d="M12.7139 3.28607C12.0969 2.66411 11.3625 2.17074 10.5535 1.83453C9.74444 1.49832 8.87672 1.32595 8.00059 1.3274C7.12428 1.32603 6.25639 1.49843 5.44713 1.83463C4.63787 2.17083 3.9033 2.66416 3.28593 3.28607C0.686592 5.88473 0.686592 10.1147 3.28593 12.7141C3.90332 13.3361 4.63798 13.8296 5.44737 14.1658C6.25677 14.502 7.12481 14.6743 8.00126 14.6727C8.87734 14.6743 9.74503 14.502 10.5541 14.1659C11.3631 13.8298 12.0975 13.3366 12.7146 12.7147C15.3139 10.1161 15.3139 5.88607 12.7139 3.28607ZM8.12059 2.66673H7.88126C7.92193 2.66607 7.96059 2.66073 8.00126 2.66073C8.04193 2.66073 8.07993 2.66607 8.12059 2.66673ZM12.1619 11.3334H10.6666L9.82793 13.0107C9.24288 13.2269 8.62429 13.3381 8.00059 13.3394C7.37574 13.3383 6.756 13.2268 6.16993 13.0101L5.33326 11.3401H3.84326C3.29355 10.6567 2.9218 9.84764 2.76126 8.9854L3.99993 7.3334L3.18926 5.7114C3.44793 5.16113 3.79952 4.65956 4.22859 4.22873C4.82912 3.62611 5.56519 3.17601 6.37526 2.91607L7.99993 4.00007L9.62526 2.91673C10.4351 3.17686 11.1711 3.62668 11.7719 4.22873C12.2005 4.65905 12.5519 5.15991 12.8106 5.7094L11.9999 7.3334L13.2386 8.9854C13.0788 9.84487 12.7089 10.6515 12.1619 11.3334Z" fill="#9B999E"/>
<path d="M5.66675 7.33341L6.66675 10.0001H9.33341L10.3334 7.33341L8.00008 5.66675L5.66675 7.33341Z" fill="#9B999E"/>
</svg>
