<svg width="16" height="16" viewBox="0 0 16 16" fill="none" xmlns="http://www.w3.org/2000/svg">
<path d="M8 1C4.13438 1 1 4.13438 1 8C1 11.8656 4.13438 15 8 15C11.8656 15 15 11.8656 15 8C15 4.13438 11.8656 1 8 1ZM10.7578 10.1516L10.3109 10.7609C10.3012 10.7742 10.289 10.7854 10.2749 10.7939C10.2608 10.8025 10.2452 10.8081 10.229 10.8106C10.2127 10.8131 10.1961 10.8123 10.1801 10.8083C10.1642 10.8044 10.1492 10.7973 10.1359 10.7875L7.55156 8.90312C7.53546 8.89156 7.52238 8.8763 7.5134 8.85863C7.50443 8.84095 7.49983 8.82138 7.5 8.80156V4.5C7.5 4.43125 7.55625 4.375 7.625 4.375H8.37656C8.44531 4.375 8.50156 4.43125 8.50156 4.5V8.36719L10.7297 9.97812C10.7859 10.0172 10.7984 10.0953 10.7578 10.1516Z" fill="#9B999E"/>
</svg>
