<svg width="24" height="24" viewBox="0 0 24 24" fill="none" xmlns="http://www.w3.org/2000/svg">
<path d="M6.75 21.2043C6.75 21.425 6.68402 21.6408 6.5604 21.8243C6.43679 22.0078 6.26109 22.1509 6.05552 22.2353C5.84995 22.3198 5.62375 22.3419 5.40552 22.2989C5.1873 22.2558 4.98684 22.1495 4.8295 21.9934C4.67217 21.8373 4.56503 21.6385 4.52162 21.422C4.47821 21.2055 4.50049 20.9811 4.58564 20.7772C4.67078 20.5733 4.81498 20.399 4.99998 20.2763C5.18499 20.1537 5.4025 20.0883 5.625 20.0883C5.92337 20.0883 6.20952 20.2058 6.4205 20.4151C6.63147 20.6244 6.75 20.9083 6.75 21.2043ZM8.25 17.4842C8.0275 17.4842 7.80999 17.5497 7.62498 17.6723C7.43998 17.7949 7.29578 17.9692 7.21064 18.1732C7.12549 18.3771 7.10321 18.6015 7.14662 18.818C7.19003 19.0345 7.29717 19.2333 7.4545 19.3894C7.61184 19.5455 7.81229 19.6518 8.03052 19.6948C8.24875 19.7379 8.47495 19.7158 8.68052 19.6313C8.88609 19.5468 9.06179 19.4038 9.1854 19.2203C9.30902 19.0367 9.375 18.821 9.375 18.6002C9.375 18.3043 9.25647 18.0204 9.0455 17.8111C8.83452 17.6018 8.54837 17.4842 8.25 17.4842ZM2.625 17.1122C2.4025 17.1122 2.18499 17.1777 1.99998 17.3003C1.81498 17.4229 1.67078 17.5972 1.58564 17.8012C1.50049 18.0051 1.47821 18.2295 1.52162 18.446C1.56503 18.6624 1.67217 18.8613 1.82951 19.0174C1.98684 19.1735 2.1873 19.2797 2.40552 19.3228C2.62375 19.3659 2.84995 19.3438 3.05552 19.2593C3.26109 19.1748 3.43679 19.0318 3.5604 18.8483C3.68402 18.6647 3.75 18.449 3.75 18.2282C3.75 17.9323 3.63147 17.6484 3.4205 17.4391C3.20952 17.2298 2.92337 17.1122 2.625 17.1122ZM6.375 15.6242C6.375 15.4035 6.30902 15.1877 6.1854 15.0042C6.06179 14.8206 5.88609 14.6776 5.68052 14.5931C5.47495 14.5087 5.24875 14.4866 5.03052 14.5296C4.8123 14.5727 4.61184 14.679 4.4545 14.8351C4.29717 14.9911 4.19003 15.19 4.14662 15.4065C4.10321 15.623 4.12549 15.8474 4.21064 16.0513C4.29578 16.2552 4.43998 16.4295 4.62498 16.5521C4.80999 16.6748 5.0275 16.7402 5.25 16.7402C5.54837 16.7402 5.83452 16.6226 6.0455 16.4133C6.25647 16.204 6.375 15.9202 6.375 15.6242ZM24 3.72002C24 3.91735 23.921 4.10659 23.7803 4.24612C23.6397 4.38565 23.4489 4.46404 23.25 4.46404H20.5594L17.9531 7.04947L15.975 18.7862C15.9327 19.057 15.8144 19.3105 15.6337 19.5177C15.453 19.7249 15.2171 19.8775 14.9531 19.9581C14.8048 20.0061 14.6498 20.0312 14.4938 20.0325C14.0994 20.0293 13.7222 19.8723 13.4438 19.5954L4.24688 10.4719C4.054 10.2792 3.91797 10.0378 3.85352 9.77386C3.78907 9.50992 3.79866 9.23352 3.88125 8.9746C3.96243 8.7127 4.11626 8.47875 4.32515 8.29949C4.53404 8.12023 4.78956 8.00289 5.0625 7.96089L16.8937 5.99856L19.5 3.41312C19.6387 3.27445 19.8038 3.16443 19.9856 3.0894C20.1674 3.01438 20.3624 2.97584 20.5594 2.97601H23.25C23.4489 2.97601 23.6397 3.0544 23.7803 3.19393C23.921 3.33346 24 3.5227 24 3.72002ZM16.3406 7.59818L5.30625 9.42101L14.5031 18.5444L16.3406 7.59818Z" fill="black"/>
</svg>
