<svg width="16" height="16" viewBox="0 0 16 16" fill="none" xmlns="http://www.w3.org/2000/svg">
<path d="M7.04391 2.06145C7.13196 1.88289 7.26823 1.73254 7.4373 1.62741C7.60637 1.52227 7.80148 1.46655 8.00058 1.46655C8.19967 1.46655 8.39478 1.52227 8.56385 1.62741C8.73292 1.73254 8.86919 1.88289 8.95724 2.06145L10.4399 5.06412L13.7546 5.54545C13.9516 5.57406 14.1367 5.65726 14.2889 5.78562C14.4412 5.91398 14.5544 6.08239 14.6159 6.27177C14.6773 6.46116 14.6846 6.66397 14.6367 6.85726C14.5889 7.05054 14.4879 7.22658 14.3452 7.36545L11.9466 9.70278L12.5132 13.0041C12.5469 13.2002 12.5251 13.4018 12.4503 13.5862C12.3754 13.7705 12.2504 13.9303 12.0896 14.0473C11.9287 14.1644 11.7382 14.2341 11.5398 14.2486C11.3413 14.2632 11.1428 14.2219 10.9666 14.1295L7.99991 12.5695L5.03457 14.1295C4.85836 14.2219 4.65981 14.2632 4.46137 14.2486C4.26292 14.2341 4.07249 14.1644 3.9116 14.0473C3.7507 13.9303 3.62576 13.7705 3.55089 13.5862C3.47602 13.4018 3.4542 13.2002 3.48791 13.0041L4.05324 9.70278L1.65457 7.36545C1.51186 7.22649 1.41091 7.05035 1.36315 6.85696C1.31539 6.66358 1.32273 6.46069 1.38434 6.27127C1.44596 6.08185 1.55938 5.91346 1.71177 5.78518C1.86416 5.6569 2.04942 5.57386 2.24657 5.54545L5.56124 5.06545L7.04257 2.06145H7.04391Z" fill="#9B999E"/>
</svg>
