<svg width="16" height="16" viewBox="0 0 16 16" fill="none" xmlns="http://www.w3.org/2000/svg">
<path d="M6.18754 8C6.18754 8.46413 6.37191 8.90925 6.7001 9.23744C7.02829 9.56563 7.47341 9.75 7.93754 9.75C8.40167 9.75 8.84679 9.56563 9.17498 9.23744C9.50317 8.90925 9.68754 8.46413 9.68754 8C9.68754 7.53587 9.50317 7.09075 9.17498 6.76256C8.84679 6.43437 8.40167 6.25 7.93754 6.25C7.47341 6.25 7.02829 6.43437 6.7001 6.76256C6.37191 7.09075 6.18754 7.53587 6.18754 8ZM14.7219 7.59688C13.2407 4.47656 11.0016 2.90625 8.00004 2.90625C4.99691 2.90625 2.75941 4.47656 1.27815 7.59844C1.21874 7.72425 1.18793 7.86165 1.18793 8.00078C1.18793 8.13991 1.21874 8.27732 1.27815 8.40312C2.75941 11.5234 4.99847 13.0938 8.00004 13.0938C11.0032 13.0938 13.2407 11.5234 14.7219 8.40156C14.8422 8.14844 14.8422 7.85469 14.7219 7.59688ZM7.93754 10.75C6.41879 10.75 5.18754 9.51875 5.18754 8C5.18754 6.48125 6.41879 5.25 7.93754 5.25C9.45629 5.25 10.6875 6.48125 10.6875 8C10.6875 9.51875 9.45629 10.75 7.93754 10.75Z" fill="#9B999E"/>
</svg>
