<svg width="20" height="20" viewBox="0 0 20 20" fill="none" xmlns="http://www.w3.org/2000/svg">
<circle r="10" transform="matrix(-1 0 0 1 10 10)" fill="#7ABE70"/>
<path d="M12.7072 3.29279C12.8947 3.48031 13 3.73462 13 3.99978C13 4.26495 12.8947 4.51926 12.7072 4.70678L7.75721 9.65678L12.7072 14.6068C12.8894 14.7954 12.9902 15.048 12.9879 15.3102C12.9856 15.5724 12.8804 15.8232 12.695 16.0086C12.5096 16.194 12.2588 16.2992 11.9966 16.3014C11.7344 16.3037 11.4818 16.2029 11.2932 16.0208L5.63621 10.3638C5.44874 10.1762 5.34343 9.92194 5.34343 9.65678C5.34343 9.39161 5.44874 9.1373 5.63621 8.94978L11.2932 3.29279C11.4807 3.10532 11.735 3 12.0002 3C12.2654 3 12.5197 3.10532 12.7072 3.29279V3.29279Z" fill="white"/>
</svg>
