<svg width="20" height="20" viewBox="0 0 20 20" fill="none" xmlns="http://www.w3.org/2000/svg">
<circle cx="10" cy="10" r="10" fill="#7ABE70"/>
<path d="M7.29279 3.29279C7.10532 3.48031 7 3.73462 7 3.99978C7 4.26495 7.10532 4.51926 7.29279 4.70678L12.2428 9.65678L7.29279 14.6068C7.11063 14.7954 7.00983 15.048 7.01211 15.3102C7.01439 15.5724 7.11956 15.8232 7.30497 16.0086C7.49038 16.194 7.74119 16.2992 8.00339 16.3014C8.26558 16.3037 8.51818 16.2029 8.70679 16.0208L14.3638 10.3638C14.5513 10.1762 14.6566 9.92194 14.6566 9.65678C14.6566 9.39161 14.5513 9.1373 14.3638 8.94978L8.70679 3.29279C8.51926 3.10532 8.26495 3 7.99979 3C7.73462 3 7.48031 3.10532 7.29279 3.29279V3.29279Z" fill="white"/>
</svg>
